<?xml version="1.0" encoding="UTF-8" standalone="no"?>
<!-- Created with Inkscape (http://www.inkscape.org/) -->

<svg
   width="800"
   height="1250"
   viewBox="0 0 211.66666 330.7296"
   version="1.1"
   id="svg5"
   inkscape:version="1.2.1 (9c6d41e410, 2022-07-14)"
   sodipodi:docname="CryptoRick_Coat.svg"
   inkscape:export-filename="CryptoRick_Coat_White.png"
   inkscape:export-xdpi="96"
   inkscape:export-ydpi="96"
   xmlns:inkscape="http://www.inkscape.org/namespaces/inkscape"
   xmlns:sodipodi="http://sodipodi.sourceforge.net/DTD/sodipodi-0.dtd"
   xmlns="http://www.w3.org/2000/svg"
   xmlns:svg="http://www.w3.org/2000/svg">
  <sodipodi:namedview
     id="namedview7"
     pagecolor="#ffffff"
     bordercolor="#000000"
     borderopacity="0.25"
     inkscape:showpageshadow="2"
     inkscape:pageopacity="0.0"
     inkscape:pagecheckerboard="0"
     inkscape:deskcolor="#d1d1d1"
     inkscape:document-units="mm"
     showgrid="false"
     inkscape:zoom="0.52221045"
     inkscape:cx="-130.2157"
     inkscape:cy="511.28812"
     inkscape:window-width="1920"
     inkscape:window-height="1009"
     inkscape:window-x="-8"
     inkscape:window-y="-8"
     inkscape:window-maximized="1"
     inkscape:current-layer="layer1" />
  <defs
     id="defs2" />
  <g
     inkscape:label="Layer 1"
     inkscape:groupmode="layer"
     id="layer1">
    <g
       id="path11279"
       transform="translate(0.35826344,1.0747903)" />
    <path
       id="path11275"
       style="opacity:1;fill:#ffffff;fill-opacity:1;stroke:#000000;stroke-width:0.772002;stroke-linecap:round;stroke-linejoin:round;stroke-dasharray:none;stroke-opacity:1"
       d="m 29.098767,331.82042 c -0.71652,-90.64053 9.31484,-98.88058 9.31484,-98.88058 21.85404,-11.10615 56.605548,-16.12183 56.605548,-16.12183 l 40.125495,2.8e-4 m 0,0 c 0,0 30.81066,1.79132 46.57425,11.46444 15.76359,9.67311 12.18096,105.32944 12.18096,105.32944 L 29.098767,331.82042" />
    <path
       style="opacity:1;fill:none;fill-opacity:1;stroke:#000000;stroke-width:0.772002;stroke-linecap:round;stroke-linejoin:round;stroke-dasharray:none;stroke-opacity:1"
       d="m 87.416135,222.12333 c 0,0 -26.511494,33.67676 -30.810656,56.96387 0,0 9.673114,12.8975 19.704491,15.40535 -7.800185,4.13254 -10.736869,8.74397 -17.554909,13.61401 0,0 5.015688,13.25575 11.106167,24.72018"
       id="path11281"
       sodipodi:nodetypes="ccccc" />
    <path
       style="opacity:1;fill:#ffffff;fill-opacity:1;stroke:#000000;stroke-width:0.772002;stroke-linecap:round;stroke-linejoin:round;stroke-dasharray:none;stroke-opacity:1"
       d="m 166.95062,273.71327 c 0,0 3.58263,30.09412 3.58263,57.68041"
       id="path11291" />
    <path
       style="opacity:1;fill:#ffffff;fill-opacity:1;stroke:#000000;stroke-width:0.772002;stroke-linecap:round;stroke-linejoin:round;stroke-dasharray:none;stroke-opacity:1"
       d="m 143.6635,222.4816 c 0,0 22.57059,21.85407 26.15323,47.29078 0,0 -7.16527,11.46442 -12.18096,17.19664 l 15.40533,11.82269 c 0,0 -10.7479,27.94455 -15.40533,32.24371"
       id="path11285" />
    <path
       style="opacity:1;fill:none;fill-opacity:1;stroke:#000000;stroke-width:0.772002;stroke-linecap:round;stroke-linejoin:round;stroke-dasharray:none;stroke-opacity:1"
       d="m 59.642492,283.01167 c 0,0 -3.582635,40.84201 -1.791319,50.15687"
       id="path11287" />
  </g>
</svg>
