<?xml version="1.0" encoding="UTF-8" standalone="no"?>
<!-- Created with Inkscape (http://www.inkscape.org/) -->

<svg
   width="800"
   height="1250"
   viewBox="0 0 211.66666 330.7296"
   version="1.1"
   id="svg5"
   inkscape:version="1.2.1 (9c6d41e410, 2022-07-14)"
   sodipodi:docname="CryptoRick_Drool.svg"
   inkscape:export-filename="CryptoRick_Drool_Green.png"
   inkscape:export-xdpi="96"
   inkscape:export-ydpi="96"
   xmlns:inkscape="http://www.inkscape.org/namespaces/inkscape"
   xmlns:sodipodi="http://sodipodi.sourceforge.net/DTD/sodipodi-0.dtd"
   xmlns="http://www.w3.org/2000/svg"
   xmlns:svg="http://www.w3.org/2000/svg">
  <sodipodi:namedview
     id="namedview7"
     pagecolor="#ffffff"
     bordercolor="#000000"
     borderopacity="0.25"
     inkscape:showpageshadow="2"
     inkscape:pageopacity="0.0"
     inkscape:pagecheckerboard="0"
     inkscape:deskcolor="#d1d1d1"
     inkscape:document-units="mm"
     showgrid="false"
     inkscape:zoom="1.0444209"
     inkscape:cx="247.02685"
     inkscape:cy="700.86686"
     inkscape:window-width="1920"
     inkscape:window-height="1009"
     inkscape:window-x="-8"
     inkscape:window-y="-8"
     inkscape:window-maximized="1"
     inkscape:current-layer="layer1" />
  <defs
     id="defs2" />
  <g
     inkscape:label="Layer 1"
     inkscape:groupmode="layer"
     id="layer1">
    <g
       id="path11279"
       transform="translate(0.35826344,1.0747903)" />
    <path
       style="opacity:1;fill:#d1edc8;fill-opacity:1;stroke:#000000;stroke-width:0.576001;stroke-linecap:round;stroke-linejoin:round;stroke-dasharray:none;stroke-opacity:1"
       d="m 97.025442,173.27806 c 0,0 -2.786635,4.55994 0.50666,5.31994 3.293318,0.75999 9.879898,-0.25333 9.119908,7.85325 -0.44865,4.78562 9.1199,0.25333 5.31994,-5.57327 -2.49096,-3.81947 5.06661,-0.75999 4.81328,-5.06661 -0.25333,-4.30662 -0.25333,-4.55995 -0.25333,-4.55995"
       id="path41328"
       sodipodi:nodetypes="cssssc" />
    <path
       style="opacity:1;fill:#d1edc8;fill-opacity:1;stroke:#000000;stroke-width:0.5320007;stroke-linecap:round;stroke-linejoin:round;stroke-dasharray:none;stroke-opacity:1"
       d="m 117.57129,186.87603 c 0,0 1.82069,4.33857 4.62415,3.9613 2.80346,-0.37727 -0.79711,-3.9613 -0.79711,-3.9613 0,0 -4.42824,-3.39538 -3.82704,0 z"
       id="path48237" />
    <path
       style="opacity:1;fill:#d1edc8;fill-opacity:1;stroke:#000000;stroke-width:0.478001;stroke-linecap:round;stroke-linejoin:round;stroke-dasharray:none;stroke-opacity:1"
       d="m 95.811839,184.22825 c 0,0 2.301381,4.211 -0.129319,4.04762 -2.430683,-0.16339 -2.752895,-3.78558 -2.752895,-3.78558 0,0 0.460815,-3.50119 2.882214,-0.26204 z"
       id="path48239" />
  </g>
</svg>
