<?xml version="1.0" encoding="UTF-8" standalone="no"?>
<!-- Created with Inkscape (http://www.inkscape.org/) -->

<svg
   width="800"
   height="1250"
   viewBox="0 0 211.66666 330.7296"
   version="1.1"
   id="svg5"
   inkscape:version="1.2.1 (9c6d41e410, 2022-07-14)"
   sodipodi:docname="CryptoRick.svg"
   inkscape:export-filename="CryptoRick.png"
   inkscape:export-xdpi="96"
   inkscape:export-ydpi="96"
   xmlns:inkscape="http://www.inkscape.org/namespaces/inkscape"
   xmlns:sodipodi="http://sodipodi.sourceforge.net/DTD/sodipodi-0.dtd"
   xmlns="http://www.w3.org/2000/svg"
   xmlns:svg="http://www.w3.org/2000/svg">
  <sodipodi:namedview
     id="namedview7"
     pagecolor="#ffffff"
     bordercolor="#000000"
     borderopacity="0.25"
     inkscape:showpageshadow="2"
     inkscape:pageopacity="0.0"
     inkscape:pagecheckerboard="0"
     inkscape:deskcolor="#d1d1d1"
     inkscape:document-units="mm"
     showgrid="false"
     inkscape:zoom="1.0444209"
     inkscape:cx="290.11292"
     inkscape:cy="547.67191"
     inkscape:window-width="1920"
     inkscape:window-height="1009"
     inkscape:window-x="-8"
     inkscape:window-y="-8"
     inkscape:window-maximized="1"
     inkscape:current-layer="layer1" />
  <defs
     id="defs2" />
  <g
     inkscape:label="Layer 1"
     inkscape:groupmode="layer"
     id="layer1">
    <path
       style="fill:#b8e0f4;fill-opacity:1;stroke:#000000;stroke-width:0.756966;stroke-linecap:round;stroke-linejoin:round;stroke-opacity:1"
       d="m 61.289208,156.86143 -4.860583,3.79446 1.518931,-10.43479 c 0,0 -10.32874,6.00792 -15.189326,6.32413 0,0 8.80981,-14.54546 9.721169,-18.33994 0,0 -11.240101,5.3755 -20.961268,5.3755 0,0 10.936314,-9.48618 13.366606,-20.55341 0,0 -18.22719,-7.58898 -24.302921,-14.22931 0,0 14.885539,-0.63241 27.644572,-13.280649 0,0 -19.442336,-7.272732 -22.480201,-12.332024 C 22.708322,78.126103 7.822782,70.22096 7.822782,70.22096 l 17.619617,-1.897236 19.442338,2.213441 11.543889,-2.213441 c 0,0 -10.328742,-9.570007 -10.936315,-24.747886 -0.607574,-15.177878 -1.518933,-26.877493 -1.518933,-26.877493 0,0 15.49311,13.596851 18.22719,14.229261 2.734079,0.632411 22.783989,16.442702 24.302922,20.237171 0.303785,-1.897234 10.328742,-20.869581 14.88553,-22.766817 4.5568,-1.897235 13.06283,-23.0830231 13.06283,-23.0830231 0,0 7.29087,19.9209661 6.98709,22.1344051 -0.30378,2.213441 12.45524,26.245082 12.45524,26.245082 l 40.70741,-30.988168 -8.80983,49.960515 c 0,0 25.21429,-0.948617 34.93545,2.213442 0,0 -24.91049,17.075109 -28.25214,24.347852 0,0 18.22718,1.264815 22.48021,6.007915 0,0 -9.72117,12.33202 -18.83478,16.44269 0,0 10.93633,7.90515 12.45525,15.17788 v 0 c 0,0 -14.27796,5.3755 -19.74611,5.3755 0,0 6.68329,8.22135 7.59466,11.38341 l -17.01205,-1.26483"
       id="path2970"
       sodipodi:nodetypes="cccccccccsccccscscscsccccc" />
    <g
       id="path11279"
       transform="translate(0.35826344,1.0747903)" />
    <path
       id="path11275"
       style="opacity:1;fill:#ffffff;fill-opacity:1;stroke:#000000;stroke-width:0.772002;stroke-linecap:round;stroke-linejoin:round;stroke-dasharray:none;stroke-opacity:1"
       d="m 29.098767,331.82042 c -0.71652,-90.64053 9.31484,-98.88058 9.31484,-98.88058 21.85404,-11.10615 56.605548,-16.12183 56.605548,-16.12183 l 40.125495,2.8e-4 m 0,0 c 0,0 30.81066,1.79132 46.57425,11.46444 15.76359,9.67311 12.18096,105.32944 12.18096,105.32944 L 29.098767,331.82042" />
    <path
       id="path13139"
       style="opacity:1;fill:#a8e8e3;fill-opacity:1;stroke:#000000;stroke-width:0.699313;stroke-linecap:round;stroke-linejoin:round;stroke-dasharray:none;stroke-opacity:1"
       d="m 88.5563,333.23101 c -0.447465,-2.71418 -1.167865,-7.75645 -1.477568,-10.49134 -1.08103,-9.54633 -1.439196,-17.52155 -1.299563,-28.93657 0.100893,-8.24779 0.197308,-10.56152 0.757038,-18.16729 1.317247,-17.89912 4.633106,-38.98757 8.709523,-55.39154 l 0.733034,-2.94984 1.363436,0.006 c 2.81061,0.0128 37.6492,1.07738 37.72122,1.1527 0.14677,0.1535 2.23579,11.37372 3.02721,16.25924 2.37794,14.67927 3.91703,29.07388 4.79613,44.85635 0.36116,6.48401 0.3034,26.70119 -0.0931,32.58877 -0.52075,7.73247 -1.37356,15.74677 -2.24075,21.07651" />
    <path
       style="opacity:1;fill:#f1e3d7;fill-opacity:1;stroke:#000000;stroke-width:0.772001;stroke-linecap:round;stroke-linejoin:round;stroke-dasharray:none;stroke-opacity:1"
       d="m 95.656208,202.77684 -0.35826,16.83836 c 0,0 21.495782,7.88178 40.125452,0.71652 L 133.99035,200.269"
       id="path9763" />
    <path
       id="path4008"
       style="fill:#f1e3d7;stroke:#000000;stroke-width:0.741523;stroke-linecap:round;stroke-linejoin:round;stroke-dasharray:none;stroke-opacity:1"
       d="m 157.82657,126.17722 c 1.65213,24.8842 2.93681,49.09648 -9.66211,63.73822 -8.63245,10.03213 -21.85684,14.62663 -34.70347,15.48268 -12.16158,0.81041 -27.437977,-5.82005 -35.236687,-14.81133 -12.46255,-14.36826 -19.42971,-38.63334 -21.14217,-64.42677 -1.37161,-20.65932 -2.64121,-38.268045 6.5361,-52.629771 9.45077,-14.789668 21.47651,-19.144889 37.506497,-20.213072 17.84105,-1.188867 34.45931,6.840112 44.53847,23.334187 7.77086,12.716621 10.95133,31.270136 12.16337,49.525856 z"
       sodipodi:nodetypes="sssssssss" />
    <path
       style="fill:none;fill-opacity:1;stroke:#000000;stroke-width:0.752999;stroke-linecap:round;stroke-linejoin:round;stroke-dasharray:none;stroke-opacity:1"
       d="m 81.70059,71.795604 c 0,0 8.907479,1.704065 13.332571,-0.102942 7.063849,-2.884556 11.343649,-4.926324 15.287409,-5.018168"
       id="path8591"
       sodipodi:nodetypes="csc" />
    <path
       style="fill:none;fill-opacity:1;stroke:#000000;stroke-width:0.796464;stroke-linecap:round;stroke-linejoin:round;stroke-dasharray:none;stroke-opacity:1"
       d="m 76.48745,78.615945 c 0,0 5.372273,-0.834781 9.117592,0.253704 3.745318,1.088481 4.367796,1.019993 10.732071,-0.274312 6.364277,-1.294306 12.373517,-6.487507 23.928927,-8.611909"
       id="path8593"
       sodipodi:nodetypes="cssc" />
    <path
       style="fill:#b8e0f4;fill-opacity:1;stroke:#000000;stroke-width:0.698464;stroke-linecap:round;stroke-linejoin:round;stroke-dasharray:none;stroke-opacity:1"
       d="m 69.524571,91.272435 c 1.854844,-0.758153 11.641735,1.245109 21.554983,-1.187502 4.119466,-1.010875 15.334026,-5.836007 21.075166,-7.796985 8.9582,-3.059815 12.58544,-2.846974 18.01427,-4.138418 4.91537,-1.169299 9.0876,1.955763 3.85995,5.195188 -3.9903,2.472676 -12.30072,2.076625 -15.47055,3.066201 -3.91523,1.222277 -13.93716,4.139558 -22.349306,7.240226 -19.442209,7.166285 -27.001546,3.210142 -27.001546,3.210142 0,0 -6.832845,-2.666393 0.317033,-5.588852 z"
       id="path8705"
       sodipodi:nodetypes="ssssssscs" />
    <g
       id="g9716"
       transform="translate(179.35776,10.133207)">
      <path
         id="path9506"
         style="fill:none;fill-opacity:1;stroke:#000000;stroke-width:0.671999;stroke-linecap:round;stroke-linejoin:round;stroke-dasharray:none;stroke-opacity:1"
         d="m -69.861278,106.4041 c 0,0 18.27141,-8.956575 37.617611,-7.523523 M -43.336125,80.971893 a 19.605177,19.605177 0 0 1 11.102838,16.45007 v 0 a 19.605177,19.605177 0 0 1 -18.332105,20.800467 19.605177,19.605177 0 0 1 -20.800478,-18.332087 19.605177,19.605177 0 0 1 3.222279,-12.06176" />
      <path
         style="fill:#ffffff;fill-opacity:1;stroke:none;stroke-width:3.43911;stroke-linecap:round;stroke-linejoin:round;stroke-dasharray:none;stroke-opacity:1"
         d="m -206.69921,444.03358 c -15.89486,-2.33383 -31.99231,-11.27966 -43.22635,-24.02217 -5.47945,-6.21522 -11.4657,-16.21767 -10.36479,-17.31858 1.44154,-1.44155 31.08845,-11.90951 45.31341,-15.99962 22.5265,-6.47705 46.46611,-10.29176 70.43053,-11.2229 l 20.64948,-0.80234 v 3.73221 c 0,2.05272 -0.96529,7.47614 -2.14509,12.05205 -6.86437,26.62368 -29.60703,47.85184 -56.85012,53.0643 -11.23483,2.14958 -12.5012,2.17708 -23.80707,0.51705 z"
         id="path9579"
         transform="scale(0.26458333)" />
      <path
         id="path9710"
         style="fill:#000000;fill-opacity:1;stroke:#000000;stroke-width:2.172;stroke-linecap:round;stroke-linejoin:round;stroke-dasharray:none;stroke-opacity:1"
         d="m -51.624169,106.6103 -0.363701,-4.9832 m -1.009434,4.6875 2.382569,-4.3918 m -3.568813,2.96303 4.755057,-1.53426 m -4.530835,-0.49952 4.306613,2.5333" />
    </g>
    <g
       id="g9724"
       transform="translate(134.77165,18.746433)">
      <path
         id="path9718"
         style="fill:none;fill-opacity:1;stroke:#000000;stroke-width:0.671999;stroke-linecap:round;stroke-linejoin:round;stroke-dasharray:none;stroke-opacity:1"
         d="m -69.861278,106.4041 c 0,0 18.27141,-8.956575 37.617611,-7.523523 M -43.336125,80.971893 a 19.605177,19.605177 0 0 1 11.102838,16.45007 v 0 a 19.605177,19.605177 0 0 1 -18.332105,20.800467 19.605177,19.605177 0 0 1 -20.800478,-18.332087 19.605177,19.605177 0 0 1 3.222279,-12.06176" />
      <path
         style="fill:#ffffff;fill-opacity:1;stroke:none;stroke-width:3.43911;stroke-linecap:round;stroke-linejoin:round;stroke-dasharray:none;stroke-opacity:1"
         d="m -206.69921,444.03358 c -15.89486,-2.33383 -31.99231,-11.27966 -43.22635,-24.02217 -5.47945,-6.21522 -11.4657,-16.21767 -10.36479,-17.31858 1.44154,-1.44155 31.08845,-11.90951 45.31341,-15.99962 22.5265,-6.47705 46.46611,-10.29176 70.43053,-11.2229 l 20.64948,-0.80234 v 3.73221 c 0,2.05272 -0.96529,7.47614 -2.14509,12.05205 -6.86437,26.62368 -29.60703,47.85184 -56.85012,53.0643 -11.23483,2.14958 -12.5012,2.17708 -23.80707,0.51705 z"
         id="path9720"
         transform="scale(0.26458333)" />
      <path
         id="path9722"
         style="fill:#000000;fill-opacity:1;stroke:#000000;stroke-width:2.172;stroke-linecap:round;stroke-linejoin:round;stroke-dasharray:none;stroke-opacity:1"
         d="m -51.624169,106.6103 -0.363701,-4.9832 m -1.009434,4.6875 2.382569,-4.3918 m -3.568813,2.96303 4.755057,-1.53426 m -4.530835,-0.49952 4.306613,2.5333" />
    </g>
    <path
       style="fill:none;fill-opacity:1;stroke:#000000;stroke-width:0.819448;stroke-linecap:round;stroke-linejoin:round;stroke-dasharray:none;stroke-opacity:1"
       d="m 70.267698,143.03739 c 0,0 19.070686,6.25781 29.887002,-5.5108"
       id="path9726" />
    <path
       style="fill:none;fill-opacity:1;stroke:#000000;stroke-width:0.819448;stroke-linecap:round;stroke-linejoin:round;stroke-dasharray:none;stroke-opacity:1"
       d="m 119.70799,134.08081 c 0,0 19.07068,6.25781 29.88699,-5.5108"
       id="path9728" />
    <path
       style="fill:none;fill-opacity:1;stroke:#000000;stroke-width:0.772001;stroke-linecap:round;stroke-linejoin:round;stroke-dasharray:none;stroke-opacity:1"
       d="m 101.63951,131.10307 c 0,0 2.66965,21.91213 10.21062,20.57959 7.87953,-1.39238 2.65334,-23.85775 2.65334,-23.85775"
       id="path9730"
       sodipodi:nodetypes="cac" />
    <path
       style="fill:none;fill-opacity:1;stroke:#000000;stroke-width:0.772001;stroke-linecap:round;stroke-linejoin:round;stroke-dasharray:none;stroke-opacity:1"
       d="m 78.101327,172.68275 c 0,0 -2.866105,8.95657 4.299153,11.46441"
       id="path9732" />
    <path
       style="fill:none;fill-opacity:1;stroke:#000000;stroke-width:0.772001;stroke-linecap:round;stroke-linejoin:round;stroke-dasharray:none;stroke-opacity:1"
       d="m 144.89647,166.65489 c 0,0 5.39266,7.70415 -0.70693,12.22358"
       id="path9736" />
    <path
       style="opacity:1;fill:#d1edc8;fill-opacity:1;stroke:#000000;stroke-width:0.576001;stroke-linecap:round;stroke-linejoin:round;stroke-dasharray:none;stroke-opacity:1"
       d="m 97.025442,173.27806 c 0,0 -2.786635,4.55994 0.50666,5.31994 3.293318,0.75999 9.879898,-0.25333 9.119908,7.85325 -0.44865,4.78562 9.1199,0.25333 5.31994,-5.57327 -2.49096,-3.81947 5.06661,-0.75999 4.81328,-5.06661 -0.25333,-4.30662 -0.25333,-4.55995 -0.25333,-4.55995"
       id="path41328"
       sodipodi:nodetypes="cssssc" />
    <path
       style="fill:none;fill-opacity:1;stroke:#000000;stroke-width:0.772001;stroke-linecap:round;stroke-linejoin:round;stroke-dasharray:none;stroke-opacity:1"
       d="m 83.833532,178.08959 c 0,0 21.495778,-12.18094 57.680338,-5.01568"
       id="path9738" />
    <path
       style="opacity:1;fill:none;fill-opacity:1;stroke:#000000;stroke-width:0.772002;stroke-linecap:round;stroke-linejoin:round;stroke-dasharray:none;stroke-opacity:1"
       d="m 87.416135,222.12333 c 0,0 -26.511494,33.67676 -30.810656,56.96387 0,0 9.673114,12.8975 19.704491,15.40535 -7.800185,4.13254 -10.736869,8.74397 -17.554909,13.61401 0,0 5.015688,13.25575 11.106167,24.72018"
       id="path11281"
       sodipodi:nodetypes="ccccc" />
    <path
       style="opacity:1;fill:#ffffff;fill-opacity:1;stroke:#000000;stroke-width:0.772002;stroke-linecap:round;stroke-linejoin:round;stroke-dasharray:none;stroke-opacity:1"
       d="m 166.95062,273.71327 c 0,0 3.58263,30.09412 3.58263,57.68041"
       id="path11291" />
    <path
       style="opacity:1;fill:#ffffff;fill-opacity:1;stroke:#000000;stroke-width:0.772002;stroke-linecap:round;stroke-linejoin:round;stroke-dasharray:none;stroke-opacity:1"
       d="m 143.6635,222.4816 c 0,0 22.57059,21.85407 26.15323,47.29078 0,0 -7.16527,11.46442 -12.18096,17.19664 l 15.40533,11.82269 c 0,0 -10.7479,27.94455 -15.40533,32.24371"
       id="path11285" />
    <path
       style="opacity:1;fill:none;fill-opacity:1;stroke:#000000;stroke-width:0.772002;stroke-linecap:round;stroke-linejoin:round;stroke-dasharray:none;stroke-opacity:1"
       d="m 59.642492,283.01167 c 0,0 -3.582635,40.84201 -1.791319,50.15687"
       id="path11287" />
    <path
       style="opacity:1;fill:#d1edc8;fill-opacity:1;stroke:#000000;stroke-width:0.5320007;stroke-linecap:round;stroke-linejoin:round;stroke-dasharray:none;stroke-opacity:1"
       d="m 117.57129,186.87603 c 0,0 1.82069,4.33857 4.62415,3.9613 2.80346,-0.37727 -0.79711,-3.9613 -0.79711,-3.9613 0,0 -4.42824,-3.39538 -3.82704,0 z"
       id="path48237" />
    <path
       style="opacity:1;fill:#d1edc8;fill-opacity:1;stroke:#000000;stroke-width:0.478001;stroke-linecap:round;stroke-linejoin:round;stroke-dasharray:none;stroke-opacity:1"
       d="m 95.811839,184.22825 c 0,0 2.301381,4.211 -0.129319,4.04762 -2.430683,-0.16339 -2.752895,-3.78558 -2.752895,-3.78558 0,0 0.460815,-3.50119 2.882214,-0.26204 z"
       id="path48239" />
  </g>
</svg>
