<?xml version="1.0" encoding="UTF-8" standalone="no"?>
<!-- Created with Inkscape (http://www.inkscape.org/) -->

<svg
   width="800"
   height="1250"
   viewBox="0 0 211.66666 330.7296"
   version="1.1"
   id="svg5"
   inkscape:version="1.2.1 (9c6d41e410, 2022-07-14)"
   sodipodi:docname="CryptoRick_Shirt.svg"
   inkscape:export-filename="CryptoRick_Shirt_Teal.png"
   inkscape:export-xdpi="96"
   inkscape:export-ydpi="96"
   xmlns:inkscape="http://www.inkscape.org/namespaces/inkscape"
   xmlns:sodipodi="http://sodipodi.sourceforge.net/DTD/sodipodi-0.dtd"
   xmlns="http://www.w3.org/2000/svg"
   xmlns:svg="http://www.w3.org/2000/svg">
  <sodipodi:namedview
     id="namedview7"
     pagecolor="#ffffff"
     bordercolor="#000000"
     borderopacity="0.25"
     inkscape:showpageshadow="2"
     inkscape:pageopacity="0.0"
     inkscape:pagecheckerboard="0"
     inkscape:deskcolor="#d1d1d1"
     inkscape:document-units="mm"
     showgrid="false"
     inkscape:zoom="0.52221045"
     inkscape:cx="513.20306"
     inkscape:cy="651.07851"
     inkscape:window-width="1920"
     inkscape:window-height="1009"
     inkscape:window-x="-8"
     inkscape:window-y="-8"
     inkscape:window-maximized="1"
     inkscape:current-layer="layer1" />
  <defs
     id="defs2" />
  <g
     inkscape:label="Layer 1"
     inkscape:groupmode="layer"
     id="layer1">
    <g
       id="path11279"
       transform="translate(0.35826344,1.0747903)" />
    <path
       id="path13139"
       style="opacity:1;fill:#a8e8e3;fill-opacity:1;stroke:#000000;stroke-width:0.699313;stroke-linecap:round;stroke-linejoin:round;stroke-dasharray:none;stroke-opacity:1"
       d="m 88.5563,333.23101 c -0.447465,-2.71418 -1.167865,-7.75645 -1.477568,-10.49134 -1.08103,-9.54633 -1.439196,-17.52155 -1.299563,-28.93657 0.100893,-8.24779 0.197308,-10.56152 0.757038,-18.16729 1.317247,-17.89912 4.633106,-38.98757 8.709523,-55.39154 l 0.733034,-2.94984 1.363436,0.006 c 2.81061,0.0128 37.6492,1.07738 37.72122,1.1527 0.14677,0.1535 2.23579,11.37372 3.02721,16.25924 2.37794,14.67927 3.91703,29.07388 4.79613,44.85635 0.36116,6.48401 0.3034,26.70119 -0.0931,32.58877 -0.52075,7.73247 -1.37356,15.74677 -2.24075,21.07651" />
  </g>
</svg>
