<?xml version="1.0" encoding="UTF-8" standalone="no"?>
<!-- Created with Inkscape (http://www.inkscape.org/) -->

<svg
   width="800"
   height="1250"
   viewBox="0 0 211.66666 330.7296"
   version="1.1"
   id="svg5"
   inkscape:version="1.2.1 (9c6d41e410, 2022-07-14)"
   sodipodi:docname="CryptoRick_Head.svg"
   inkscape:export-filename="CryptoRick_Head_Beige.png"
   inkscape:export-xdpi="96"
   inkscape:export-ydpi="96"
   xmlns:inkscape="http://www.inkscape.org/namespaces/inkscape"
   xmlns:sodipodi="http://sodipodi.sourceforge.net/DTD/sodipodi-0.dtd"
   xmlns="http://www.w3.org/2000/svg"
   xmlns:svg="http://www.w3.org/2000/svg">
  <sodipodi:namedview
     id="namedview7"
     pagecolor="#ffffff"
     bordercolor="#000000"
     borderopacity="0.25"
     inkscape:showpageshadow="2"
     inkscape:pageopacity="0.0"
     inkscape:pagecheckerboard="0"
     inkscape:deskcolor="#d1d1d1"
     inkscape:document-units="mm"
     showgrid="false"
     inkscape:zoom="0.7385171"
     inkscape:cx="28.43536"
     inkscape:cy="565.99908"
     inkscape:window-width="1920"
     inkscape:window-height="1009"
     inkscape:window-x="-8"
     inkscape:window-y="-8"
     inkscape:window-maximized="1"
     inkscape:current-layer="layer1" />
  <defs
     id="defs2" />
  <g
     inkscape:label="Layer 1"
     inkscape:groupmode="layer"
     id="layer1">
    <g
       id="path11279"
       transform="translate(0.35826344,1.0747903)" />
    <path
       style="opacity:1;fill:#f1e3d7;fill-opacity:1;stroke:#000000;stroke-width:0.772001;stroke-linecap:round;stroke-linejoin:round;stroke-dasharray:none;stroke-opacity:1"
       d="m 95.656208,202.77684 -0.35826,16.83836 c 0,0 21.495782,7.88178 40.125452,0.71652 L 133.99035,200.269"
       id="path9763" />
    <path
       id="path4008"
       style="fill:#f1e3d7;stroke:#000000;stroke-width:0.741523;stroke-linecap:round;stroke-linejoin:round;stroke-dasharray:none;stroke-opacity:1"
       d="m 157.82657,126.17722 c 1.65213,24.8842 2.93681,49.09648 -9.66211,63.73822 -8.63245,10.03213 -21.85684,14.62663 -34.70347,15.48268 -12.16158,0.81041 -27.437977,-5.82005 -35.236687,-14.81133 -12.46255,-14.36826 -19.42971,-38.63334 -21.14217,-64.42677 -1.37161,-20.65932 -2.64121,-38.268045 6.5361,-52.629771 9.45077,-14.789668 21.47651,-19.144889 37.506497,-20.213072 17.84105,-1.188867 34.45931,6.840112 44.53847,23.334187 7.77086,12.716621 10.95133,31.270136 12.16337,49.525856 z"
       sodipodi:nodetypes="sssssssss" />
  </g>
</svg>
