<?xml version="1.0" encoding="UTF-8" standalone="no"?>
<!-- Created with Inkscape (http://www.inkscape.org/) -->

<svg
   width="800"
   height="1250"
   viewBox="0 0 211.66666 330.7296"
   version="1.1"
   id="svg5"
   inkscape:version="1.2.1 (9c6d41e410, 2022-07-14)"
   sodipodi:docname="CryptoRick_Hair_Teal.svg"
   inkscape:export-filename="CryptoRick_Hair_Teal.png"
   inkscape:export-xdpi="96"
   inkscape:export-ydpi="96"
   xmlns:inkscape="http://www.inkscape.org/namespaces/inkscape"
   xmlns:sodipodi="http://sodipodi.sourceforge.net/DTD/sodipodi-0.dtd"
   xmlns="http://www.w3.org/2000/svg"
   xmlns:svg="http://www.w3.org/2000/svg">
  <sodipodi:namedview
     id="namedview7"
     pagecolor="#ffffff"
     bordercolor="#000000"
     borderopacity="0.25"
     inkscape:showpageshadow="2"
     inkscape:pageopacity="0.0"
     inkscape:pagecheckerboard="0"
     inkscape:deskcolor="#d1d1d1"
     inkscape:document-units="mm"
     showgrid="false"
     inkscape:zoom="0.73851712"
     inkscape:cx="129.99022"
     inkscape:cy="532.14745"
     inkscape:window-width="1920"
     inkscape:window-height="1009"
     inkscape:window-x="-8"
     inkscape:window-y="-8"
     inkscape:window-maximized="1"
     inkscape:current-layer="layer1" />
  <defs
     id="defs2" />
  <g
     inkscape:label="Layer 1"
     inkscape:groupmode="layer"
     id="layer1">
    <path
       style="fill:#b8e0f4;fill-opacity:1;stroke:#000000;stroke-width:0.756966;stroke-linecap:round;stroke-linejoin:round;stroke-opacity:1"
       d="m 61.289208,156.86143 -4.860583,3.79446 1.518931,-10.43479 c 0,0 -10.32874,6.00792 -15.189326,6.32413 0,0 8.80981,-14.54546 9.721169,-18.33994 0,0 -11.240101,5.3755 -20.961268,5.3755 0,0 10.936314,-9.48618 13.366606,-20.55341 0,0 -18.22719,-7.58898 -24.302921,-14.22931 0,0 14.885539,-0.63241 27.644572,-13.280649 0,0 -19.442336,-7.272732 -22.480201,-12.332024 C 22.708322,78.126103 7.822782,70.22096 7.822782,70.22096 l 17.619617,-1.897236 19.442338,2.213441 11.543889,-2.213441 c 0,0 -10.328742,-9.570007 -10.936315,-24.747886 -0.607574,-15.177878 -1.518933,-26.877493 -1.518933,-26.877493 0,0 15.49311,13.596851 18.22719,14.229261 2.734079,0.632411 22.783989,16.442702 24.302922,20.237171 0.303785,-1.897234 10.328742,-20.869581 14.88553,-22.766817 4.5568,-1.897235 13.06283,-23.0830231 13.06283,-23.0830231 0,0 7.29087,19.9209661 6.98709,22.1344051 -0.30378,2.213441 12.45524,26.245082 12.45524,26.245082 l 40.70741,-30.988168 -8.80983,49.960515 c 0,0 25.21429,-0.948617 34.93545,2.213442 0,0 -24.91049,17.075109 -28.25214,24.347852 0,0 18.22718,1.264815 22.48021,6.007915 0,0 -9.72117,12.33202 -18.83478,16.44269 0,0 10.93633,7.90515 12.45525,15.17788 v 0 c 0,0 -14.27796,5.3755 -19.74611,5.3755 0,0 6.68329,8.22135 7.59466,11.38341 l -17.01205,-1.26483"
       id="path2970"
       sodipodi:nodetypes="cccccccccsccccscscscsccccc" />
    <g
       id="path11279"
       transform="translate(0.35826344,1.0747903)" />
  </g>
</svg>
